<?xml version="1.0" standalone="no"?>
<!DOCTYPE svg PUBLIC "-//W3C//DTD SVG 20010904//EN"
 "http://www.w3.org/TR/2001/REC-SVG-20010904/DTD/svg10.dtd">
<svg version="1.0" xmlns="http://www.w3.org/2000/svg"
 width="512.000000pt" height="512.000000pt" viewBox="0 0 512.000000 512.000000"
 preserveAspectRatio="xMidYMid meet">
<metadata>
Created by potrace 1.14, written by Peter Selinger 2001-2017
</metadata>
<g transform="translate(0.000000,512.000000) scale(0.100000,-0.100000)"
fill="#000000" stroke="none">
<path d="M4255 4543 c-16 -2 -71 -15 -121 -29 -54 -14 -119 -24 -158 -24 -97
0 -325 -27 -526 -62 -398 -69 -459 -75 -696 -69 -121 2 -430 5 -689 5 -433 1
-483 -1 -634 -22 -90 -12 -208 -31 -262 -42 -137 -28 -352 -95 -429 -134 -36
-18 -90 -41 -120 -51 -86 -27 -167 -74 -196 -112 -36 -47 -64 -141 -64 -214 0
-77 22 -222 66 -434 19 -93 38 -209 41 -257 5 -67 9 -86 18 -78 15 12 25 3 25
-22 0 -29 28 -76 48 -82 29 -10 41 -46 31 -97 -11 -59 -11 -247 1 -334 5 -38
13 -95 16 -126 l7 -56 -51 -28 c-59 -32 -77 -64 -96 -163 -11 -62 -14 -67 -39
-70 -31 -4 -32 -9 -43 -127 -15 -169 1 -575 26 -656 4 -15 3 -60 -3 -101 -10
-72 -9 -76 13 -109 85 -121 185 -201 300 -238 54 -18 103 -23 290 -31 237 -9
293 -19 375 -70 l34 -21 16 31 c21 41 35 38 35 -10 0 -27 4 -40 14 -40 7 0 19
-14 26 -30 20 -49 34 -40 44 29 3 19 10 37 17 41 6 4 11 18 10 31 -1 13 -3 37
-4 53 -1 16 3 31 10 33 7 3 15 -22 22 -69 6 -40 15 -91 20 -113 l9 -40 1 48
c0 26 5 47 10 47 4 0 15 17 23 38 l15 37 11 -40 c7 -22 12 -54 12 -72 0 -35
14 -52 24 -28 3 8 16 20 30 26 21 10 32 7 79 -20 64 -36 78 -38 102 -11 23 25
43 25 75 0 30 -23 58 -26 66 -5 8 20 31 19 42 -2 9 -15 27 -15 188 -8 99 4
217 6 264 4 145 -5 200 -4 355 10 104 9 260 12 510 9 393 -5 540 2 714 32 99
18 138 31 293 102 99 45 183 89 188 97 16 31 41 145 61 275 16 109 21 218 29
644 5 282 12 554 16 605 9 135 10 1287 1 1392 -23 262 -46 376 -101 490 -99
207 -221 291 -391 268z m-2564 -587 c-1 -92 -4 -176 -6 -186 -2 -10 -6 -96 -9
-192 -7 -183 -13 -345 -21 -493 -3 -49 -7 -173 -11 -275 -3 -102 -7 -203 -9
-225 -2 -22 -7 -137 -10 -255 -4 -118 -8 -235 -10 -260 -2 -25 -6 -139 -9
-255 l-6 -210 225 565 c124 311 232 579 239 595 8 17 44 107 80 200 107 272
108 275 130 281 12 2 84 3 161 2 l140 -3 -1 -165 c-1 -228 -18 -1002 -29
-1325 l-5 -150 21 45 c12 25 49 115 81 200 33 85 94 243 135 350 41 107 85
222 97 255 13 33 73 191 134 350 62 160 201 522 310 805 l198 515 178 3 177 2
-7 -22 c-7 -26 -69 -184 -289 -743 -185 -469 -446 -1136 -508 -1295 -184 -472
-399 -1018 -406 -1030 -7 -12 -41 -15 -196 -18 -133 -2 -191 1 -196 9 -3 6 -5
335 -3 730 2 402 0 720 -5 723 -5 3 -15 -9 -22 -27 -16 -41 -336 -792 -354
-832 -7 -16 -68 -159 -135 -318 l-122 -287 -191 0 -190 0 8 283 c4 155 8 305
10 332 1 28 6 165 10 305 4 140 9 282 10 315 1 33 6 179 10 325 4 146 9 288
10 315 2 28 6 156 10 285 3 129 8 267 10 305 2 39 6 185 10 325 3 140 8 270
11 288 l5 32 171 -2 172 -3 -3 -169z"/>
</g>
</svg>
